<svg xmlns="http://www.w3.org/2000/svg" viewBox="0 0 750 500"><g id="freepik--background-complete--inject-11"><rect x="242.4" y="107.14" width="56.7" height="77.59" transform="translate(-24.71 60.45) rotate(-12.19)" style="fill:#f5f5f5"></rect><rect x="365.24" y="70.85" width="188.89" height="122.83" style="fill:#f5f5f5"></rect><circle cx="459.68" cy="127.08" r="25.7" transform="translate(229.29 544.66) rotate(-76.57)" style="fill:#e0e0e0"></circle><polygon points="468.32 127.08 461.61 130.95 454.89 134.83 454.89 127.08 454.89 119.33 461.61 123.2 468.32 127.08" style="fill:#f5f5f5"></polygon><rect x="365.24" y="171.62" width="188.89" height="22.07" style="fill:#e0e0e0"></rect><polygon points="383.59 182.65 380.87 184.23 378.14 185.8 378.14 182.65 378.14 179.51 380.87 181.08 383.59 182.65" style="fill:#f5f5f5"></polygon><rect x="399.25" y="182.15" width="139.33" height="1" style="fill:#f5f5f5"></rect><path d="M402.07,182.65a2.08,2.08,0,1,1-2.08-2.07A2.08,2.08,0,0,1,402.07,182.65Z" style="fill:#f5f5f5"></path><rect x="498.94" y="159.32" width="193.38" height="174.28" rx="5.49" style="fill:#f5f5f5"></rect><path d="M505.35,159.32H685.91a6.41,6.41,0,0,1,6.41,6.41v13.05a0,0,0,0,1,0,0H498.94a0,0,0,0,1,0,0V165.73A6.41,6.41,0,0,1,505.35,159.32Z" style="fill:#ebebeb"></path><circle cx="510.74" cy="169.08" r="1.53" style="fill:#fafafa"></circle><path d="M521.42,169.08a1.53,1.53,0,1,1-1.53-1.52A1.53,1.53,0,0,1,521.42,169.08Z" style="fill:#fafafa"></path><circle cx="529.04" cy="169.08" r="1.53" style="fill:#fafafa"></circle><rect x="596.04" y="194.47" width="73.02" height="2.64" style="fill:#fafafa"></rect><rect x="596.04" y="205.34" width="73.02" height="2.64" style="fill:#fafafa"></rect><rect x="596.04" y="216.22" width="73.02" height="2.64" style="fill:#fafafa"></rect><rect x="596.04" y="227.1" width="73.02" height="2.64" style="fill:#fafafa"></rect><rect x="596.04" y="237.97" width="36.51" height="2.64" style="fill:#fafafa"></rect><rect x="518.49" y="259.36" width="73.02" height="2.64" transform="translate(1109.99 521.37) rotate(180)" style="fill:#fafafa"></rect><rect x="518.49" y="270.24" width="73.02" height="2.64" transform="translate(1109.99 543.12) rotate(180)" style="fill:#fafafa"></rect><rect x="518.49" y="281.11" width="73.02" height="2.64" transform="translate(1109.99 564.87) rotate(180)" style="fill:#fafafa"></rect><rect x="518.49" y="291.99" width="73.02" height="2.64" transform="translate(1109.99 586.62) rotate(180)" style="fill:#fafafa"></rect><rect x="555" y="302.86" width="36.51" height="2.64" transform="translate(1146.5 608.37) rotate(180)" style="fill:#fafafa"></rect><rect x="604.12" y="256.44" width="62.49" height="51.99" style="fill:#fafafa"></rect><polygon points="604.02 292.73 622.48 279.79 635.37 288.71 655.63 271.56 666.61 282.44 666.61 308.43 604.12 308.43 604.02 292.73" style="fill:#ebebeb"></polygon><circle cx="636.45" cy="271.56" r="5.23" style="fill:#ebebeb"></circle><rect x="518.49" y="192.87" width="62.49" height="51.99" style="fill:#fafafa"></rect><polygon points="518.38 229.16 536.84 216.22 549.73 225.13 569.99 207.99 580.97 218.86 580.97 244.86 518.49 244.86 518.38 229.16" style="fill:#ebebeb"></polygon><circle cx="550.81" cy="207.99" r="5.23" style="fill:#ebebeb"></circle><path d="M58.64,240.54H291.28a0,0,0,0,1,0,0V361.9a4.65,4.65,0,0,1-4.65,4.65H63.29a4.65,4.65,0,0,1-4.65-4.65V240.54A0,0,0,0,1,58.64,240.54Z" style="fill:#f5f5f5"></path><rect x="58.64" y="240.54" width="232.64" height="23.41" style="fill:#ebebeb"></rect><circle cx="72.83" cy="252.29" r="1.84" style="fill:#fafafa"></circle><circle cx="83.84" cy="252.29" r="1.84" style="fill:#fafafa"></circle><circle cx="94.85" cy="252.29" r="1.84" style="fill:#fafafa"></circle><rect x="175.46" y="282.83" width="87.85" height="3.18" style="fill:#ebebeb"></rect><rect x="175.46" y="295.91" width="87.85" height="3.18" style="fill:#ebebeb"></rect><rect x="175.46" y="308.99" width="87.85" height="3.18" style="fill:#ebebeb"></rect><rect x="175.46" y="322.08" width="87.85" height="3.18" style="fill:#ebebeb"></rect><rect x="175.46" y="335.16" width="43.92" height="3.18" style="fill:#ebebeb"></rect><rect x="77.99" y="280.6" width="75.17" height="62.55" style="fill:#fafafa"></rect><polygon points="77.86 324.26 100.08 308.69 115.58 319.42 139.95 298.79 153.16 311.87 153.16 343.15 77.99 343.15 77.86 324.26" style="fill:#ebebeb"></polygon><path d="M123.17,298.79a6.3,6.3,0,1,1-6.29-6.3A6.3,6.3,0,0,1,123.17,298.79Z" style="fill:#ebebeb"></path></g><g id="freepik--Document--inject-11"><rect x="235.41" y="120.83" width="56.7" height="77.59" transform="translate(-27.75 59.28) rotate(-12.19)" style="fill:#fff"></rect><path d="M299.65,191.56l-.09-.37c-.06-.25-.14-.61-.24-1.07-.22-1-.53-2.34-.93-4.13-.79-3.63-1.95-8.9-3.42-15.57-2.91-13.34-7-32.26-11.92-54.65l.28.18-55.41,12h0l.2-.31c6.1,28.33,11.75,54.56,16.33,75.85l-.25-.17,40.27-8.58,11.21-2.37,3-.61,1-.2s-.32.09-1,.24l-2.91.65-11.14,2.46-40.35,8.83-.21,0,0-.2c-4.61-21.29-10.29-47.51-16.43-75.83l0-.26.25,0h0l55.42-12,.23,0,.05.23c4.8,22.48,8.86,41.47,11.72,54.85,1.41,6.66,2.53,11.92,3.29,15.54.38,1.78.66,3.16.86,4.1l.21,1.05A3.53,3.53,0,0,1,299.65,191.56Z" style="fill:#263238"></path><path d="M265,135.61c0,.15-6,1.56-13.41,3.17s-13.49,2.79-13.52,2.65,6-1.55,13.41-3.16S265,135.47,265,135.61Z" style="fill:#263238"></path><path d="M281,139.06c0,.14-9.24,2.26-20.69,4.73s-20.78,4.37-20.81,4.23,9.24-2.26,20.7-4.73S281,138.92,281,139.06Z" style="fill:#263238"></path><path d="M282.51,145.93c0,.14-9.23,2.26-20.69,4.74S241.05,155,241,154.9s9.23-2.26,20.69-4.74S282.48,145.79,282.51,145.93Z" style="fill:#263238"></path><path d="M284,152.81c0,.14-9.24,2.26-20.69,4.73s-20.78,4.37-20.81,4.23,9.23-2.26,20.7-4.73S284,152.67,284,152.81Z" style="fill:#263238"></path><path d="M285.48,159.68c0,.14-9.23,2.26-20.69,4.74S244,168.79,244,168.65s9.23-2.26,20.69-4.74S285.45,159.54,285.48,159.68Z" style="fill:#263238"></path><path d="M287,166.56c0,.14-9.24,2.26-20.69,4.73s-20.78,4.37-20.81,4.23,9.23-2.26,20.7-4.74S286.94,166.42,287,166.56Z" style="fill:#263238"></path><path d="M288.45,173.43c0,.14-9.23,2.26-20.69,4.74S247,182.54,247,182.4s9.23-2.26,20.69-4.74S288.42,173.29,288.45,173.43Z" style="fill:#263238"></path><path d="M270.75,184.45c0,.14-4.94,1.34-11.1,2.67s-11.18,2.29-11.21,2.15,4.94-1.33,11.1-2.66S270.72,184.31,270.75,184.45Z" style="fill:#263238"></path></g><g id="freepik--Pointer--inject-11"><polygon points="542.57 309.85 556.75 346.26 562.67 336.71 570.86 347.47 580.63 338.18 571.32 329.2 579.91 323.39 542.57 309.85" style="fill:#407BFF"></polygon><path d="M537.23,315.23a38.17,38.17,0,0,1-5.17,3.59,37.45,37.45,0,0,1-5.45,3.14,39.52,39.52,0,0,1,5.17-3.58A38.14,38.14,0,0,1,537.23,315.23Z" style="fill:#263238"></path><path d="M538.33,307.89a9.48,9.48,0,0,1-2.28-.6c-1.38-.44-3.28-1.11-5.33-2s-3.89-1.65-5.2-2.27a10.68,10.68,0,0,1-2.08-1.1,10.56,10.56,0,0,1,2.22.76l5.25,2.13,5.27,2.09A11,11,0,0,1,538.33,307.89Z" style="fill:#263238"></path><path d="M542.61,291.36a7.91,7.91,0,0,1,.52,2c.24,1.25.53,3,.77,4.93s.4,3.7.47,5a7.85,7.85,0,0,1,0,2.08,68.77,68.77,0,0,1-1-7A66.16,66.16,0,0,1,542.61,291.36Z" style="fill:#263238"></path><path d="M562.24,299.51c.06.14-2.56,1.27-5.52,3.17s-5.3,3.55-5.39,3.42.49-.54,1.41-1.25a44.48,44.48,0,0,1,3.7-2.61A19.23,19.23,0,0,1,562.24,299.51Z" style="fill:#263238"></path></g><g id="freepik--Plus--inject-11"><path d="M212.61,316.05a29.6,29.6,0,0,0-.67-4.41,17.62,17.62,0,0,0-2-4.78,18.12,18.12,0,0,0-4.59-5.09,17.93,17.93,0,0,0-17-2.54,17.17,17.17,0,0,0-4.53,2.44,16.28,16.28,0,0,0-3.78,3.81,17.79,17.79,0,0,0,0,21.14,16.5,16.5,0,0,0,3.78,3.8,16.89,16.89,0,0,0,4.53,2.44,17.93,17.93,0,0,0,17-2.54,18.23,18.23,0,0,0,4.59-5.08,17.66,17.66,0,0,0,2-4.79,29.59,29.59,0,0,0,.67-4.4s0,.1,0,.29l0,.87a7.68,7.68,0,0,1-.12,1.4,12.09,12.09,0,0,1-.34,1.89,17,17,0,0,1-2,4.88,18.34,18.34,0,0,1-12.32,8.7,18.42,18.42,0,0,1-9.65-.77,17,17,0,0,1-4.65-2.49,16.92,16.92,0,0,1-3.9-3.9,18.27,18.27,0,0,1,0-21.75,23.12,23.12,0,0,1,1.81-2.13,22,22,0,0,1,2.09-1.77,17.58,17.58,0,0,1,4.65-2.49,18.31,18.31,0,0,1,9.65-.76,18.29,18.29,0,0,1,12.32,8.69,17.12,17.12,0,0,1,2,4.88,12.09,12.09,0,0,1,.34,1.89,7.85,7.85,0,0,1,.12,1.41l0,.86C212.62,316,212.61,316.05,212.61,316.05Z" style="fill:#263238"></path><path d="M194.46,325.16a81.06,81.06,0,0,1-.26-9.11,81.06,81.06,0,0,1,.26-9.11,76.87,76.87,0,0,1,.27,9.11A76.87,76.87,0,0,1,194.46,325.16Z" style="fill:#263238"></path><path d="M203.57,316.05a80.8,80.8,0,0,1-9.1.26,80.91,80.91,0,0,1-9.11-.26,78.16,78.16,0,0,1,9.11-.26A78.06,78.06,0,0,1,203.57,316.05Z" style="fill:#263238"></path></g><g id="freepik--search-engine--inject-11"><path d="M491,374.69c-.12.07-12.68-19.35-28.05-43.39s-27.74-43.6-27.62-43.67S448,307,463.34,331,491.07,374.61,491,374.69Z" style="fill:#263238"></path><circle cx="496.41" cy="387.96" r="29.15" style="fill:#fff"></circle><path d="M467.26,388s0-.16,0-.47,0-.8.05-1.39c0-.31,0-.65,0-1s.1-.78.16-1.22a21.64,21.64,0,0,1,.57-3,27.59,27.59,0,0,1,3.18-7.82A29.34,29.34,0,0,1,491,359.11a28.06,28.06,0,0,1,3.71-.44c.63,0,1.27-.09,1.91-.08l1.95.1a13.19,13.19,0,0,1,2,.21c.65.1,1.32.18,2,.31a32.86,32.86,0,0,1,7.75,2.82c.62.34,1.22.73,1.84,1.09a15.05,15.05,0,0,1,1.77,1.22,26.58,26.58,0,0,1,6.22,6.24,28.06,28.06,0,0,1,4.21,8.09,29.18,29.18,0,0,1,0,18.56,28.55,28.55,0,0,1-4.21,8.11,33.87,33.87,0,0,1-2.89,3.4,31.85,31.85,0,0,1-3.34,2.83,15.05,15.05,0,0,1-1.77,1.22c-.62.37-1.22.76-1.84,1.09a30.08,30.08,0,0,1-3.83,1.68,31.31,31.31,0,0,1-3.93,1.14c-.65.14-1.32.21-2,.32a13.19,13.19,0,0,1-2,.21l-1.95.09c-.64,0-1.28-.05-1.91-.08a26.81,26.81,0,0,1-3.72-.44,29.38,29.38,0,0,1-19.73-13.88,27.82,27.82,0,0,1-3.18-7.82,22.19,22.19,0,0,1-.57-3c-.06-.45-.13-.85-.16-1.23s0-.71,0-1c0-.59,0-1.05-.05-1.39s0-.47,0-.47,0,.16.05.47.05.79.09,1.38l.07,1c0,.37.12.78.18,1.22a22.67,22.67,0,0,0,.62,3,27.71,27.71,0,0,0,3.23,7.72,29.14,29.14,0,0,0,19.56,13.61,27.51,27.51,0,0,0,3.66.42c.63,0,1.25.08,1.89.07l1.91-.1a12.52,12.52,0,0,0,1.93-.21c.65-.11,1.3-.18,1.95-.32a31.83,31.83,0,0,0,3.85-1.13,30.63,30.63,0,0,0,3.77-1.66c.61-.33,1.2-.72,1.8-1.08a14.66,14.66,0,0,0,1.75-1.2,30.55,30.55,0,0,0,3.27-2.79,31.59,31.59,0,0,0,2.84-3.35,28,28,0,0,0,4.13-8,28.72,28.72,0,0,0,0-18.23,28,28,0,0,0-4.13-8,31.5,31.5,0,0,0-2.83-3.35,33,33,0,0,0-3.27-2.79,14.66,14.66,0,0,0-1.75-1.2c-.6-.36-1.19-.74-1.8-1.08a29.12,29.12,0,0,0-3.77-1.65,30.18,30.18,0,0,0-3.85-1.14c-.65-.13-1.3-.21-1.95-.31a12.54,12.54,0,0,0-1.93-.22l-1.91-.1c-.63,0-1.26.06-1.89.08a25.63,25.63,0,0,0-3.65.42,29,29,0,0,0-19.57,13.61,27.59,27.59,0,0,0-3.23,7.72,22,22,0,0,0-.62,3c-.06.44-.14.84-.18,1.22s-.05.71-.07,1c0,.59-.07,1-.09,1.39S467.26,388,467.26,388Z" style="fill:#263238"></path><polygon points="488.46 377.25 484.47 400.05 496.41 398.41 508.35 400.05 503.54 377.25 488.46 377.25" style="fill:#263238"></polygon><path d="M501.45,377.55c-.09,0-.33-.82-1-2a6.37,6.37,0,0,0-1.43-1.85,4.79,4.79,0,0,0-1.17-.68,4.42,4.42,0,0,0-1.43-.24,5,5,0,0,0-2.72.65,4.34,4.34,0,0,0-1.49,1.75c-.6,1.22-.8,2.07-.89,2.05a5.5,5.5,0,0,1,.56-2.21,4.43,4.43,0,0,1,1.56-2,5.15,5.15,0,0,1,3-.77,4.73,4.73,0,0,1,1.6.29,4.57,4.57,0,0,1,1.3.79,6.22,6.22,0,0,1,1.45,2.05A5.7,5.7,0,0,1,501.45,377.55Z" style="fill:#263238"></path><path d="M380.09,376.64c-.15,0-.26-20.07-.26-44.83s.11-44.83.26-44.83.26,20.06.26,44.83S380.23,376.64,380.09,376.64Z" style="fill:#263238"></path><circle cx="379.49" cy="388.61" r="29.15" style="fill:#fff"></circle><path d="M350.34,388.61s0-.16,0-.47,0-.8,0-1.39c0-.31,0-.65,0-1s.11-.78.17-1.22a19.29,19.29,0,0,1,.57-3,27.52,27.52,0,0,1,3.18-7.82,29.28,29.28,0,0,1,19.73-13.89,28.27,28.27,0,0,1,3.71-.44c.64,0,1.28-.08,1.92-.08l1.94.1a12.91,12.91,0,0,1,2,.21c.66.1,1.32.18,2,.31A31.22,31.22,0,0,1,389.5,361a30.77,30.77,0,0,1,3.84,1.67c.62.34,1.22.73,1.83,1.09A16.49,16.49,0,0,1,397,365a35.47,35.47,0,0,1,3.34,2.83,33.7,33.7,0,0,1,2.88,3.41,28.62,28.62,0,0,1,4.21,8.1,29.09,29.09,0,0,1,0,18.56,28.12,28.12,0,0,1-4.21,8.1,32.51,32.51,0,0,1-2.88,3.4,34,34,0,0,1-3.34,2.83,15.16,15.16,0,0,1-1.78,1.22c-.61.37-1.21.76-1.83,1.09a30.84,30.84,0,0,1-3.84,1.68,31.17,31.17,0,0,1-3.92,1.14c-.66.14-1.32.21-2,.32a12.91,12.91,0,0,1-2,.21l-1.94.09c-.65,0-1.28-.05-1.92-.08a26.48,26.48,0,0,1-3.71-.44,29.32,29.32,0,0,1-19.73-13.88,27.52,27.52,0,0,1-3.18-7.82,19.5,19.5,0,0,1-.57-3c-.06-.45-.13-.85-.17-1.23s0-.71,0-1c0-.59,0-1.05,0-1.39s0-.47,0-.47a4.37,4.37,0,0,1,.05.47c0,.33.06.79.1,1.38q0,.46.06,1c0,.37.12.78.19,1.22a22.5,22.5,0,0,0,.61,3,28.08,28.08,0,0,0,3.24,7.72A29.14,29.14,0,0,0,374.15,417a27.51,27.51,0,0,0,3.66.42c.62,0,1.25.08,1.88.07l1.92-.1a12.79,12.79,0,0,0,1.93-.21c.64-.11,1.3-.18,1.94-.32a30.26,30.26,0,0,0,3.86-1.13,30.63,30.63,0,0,0,3.77-1.66c.61-.33,1.19-.72,1.8-1.07a15.91,15.91,0,0,0,1.74-1.21,31.74,31.74,0,0,0,3.28-2.78,32.85,32.85,0,0,0,2.83-3.36,27.88,27.88,0,0,0,4.13-8,28.63,28.63,0,0,0,0-18.23,28,28,0,0,0-4.13-8,33.84,33.84,0,0,0-2.83-3.35,33.15,33.15,0,0,0-3.28-2.79,14.55,14.55,0,0,0-1.74-1.2c-.61-.36-1.19-.74-1.8-1.07a27.87,27.87,0,0,0-3.77-1.66,30.32,30.32,0,0,0-3.86-1.14c-.64-.13-1.3-.21-1.94-.31a11.51,11.51,0,0,0-1.93-.21l-1.91-.1c-.64,0-1.27.05-1.89.07a25.94,25.94,0,0,0-3.66.42,29.14,29.14,0,0,0-19.56,13.61,28,28,0,0,0-3.24,7.72,21.89,21.89,0,0,0-.61,3c-.07.44-.15.84-.19,1.22s0,.71-.06,1c0,.59-.07,1.05-.1,1.39A4.37,4.37,0,0,1,350.34,388.61Z" style="fill:#263238"></path><polygon points="379.49 375.55 366.85 387.04 366.85 401.61 376.69 401.61 376.69 392.88 382.96 392.88 382.96 401.61 392.14 401.61 392.14 387.04 379.49 375.55" style="fill:#263238"></polygon><path d="M267.25,375.7c-.12-.07,12.43-19.92,28-44.31s28.35-44.12,28.47-44-12.43,19.91-28,44.32S267.37,375.78,267.25,375.7Z" style="fill:#263238"></path><circle cx="262.53" cy="388.24" r="29.15" style="fill:#fff"></circle><path d="M291.68,388.24a4.37,4.37,0,0,1-.05-.47c0-.34-.06-.8-.1-1.39,0-.3,0-.64-.06-1s-.12-.78-.19-1.22a20.48,20.48,0,0,0-.61-3,27.65,27.65,0,0,0-3.24-7.72,29.14,29.14,0,0,0-19.56-13.61,25.94,25.94,0,0,0-3.66-.42c-.62,0-1.25-.08-1.88-.07l-1.92.1a11.62,11.62,0,0,0-1.93.21c-.64.1-1.3.18-1.94.31a30.32,30.32,0,0,0-3.86,1.14,29,29,0,0,0-3.77,1.66c-.61.33-1.19.71-1.8,1.07a15.4,15.4,0,0,0-1.74,1.2,34.33,34.33,0,0,0-3.28,2.79,33.84,33.84,0,0,0-2.83,3.35,28,28,0,0,0-4.13,8,28.63,28.63,0,0,0,0,18.23,27.88,27.88,0,0,0,4.13,8,32.85,32.85,0,0,0,2.83,3.36,31.74,31.74,0,0,0,3.28,2.78,14.64,14.64,0,0,0,1.74,1.21c.61.35,1.19.74,1.8,1.07a32,32,0,0,0,3.77,1.66,28.72,28.72,0,0,0,3.86,1.13c.64.14,1.3.21,1.94.32a12.79,12.79,0,0,0,1.93.21l1.92.1c.63,0,1.26,0,1.88-.07a27.13,27.13,0,0,0,3.66-.42,29.07,29.07,0,0,0,19.56-13.61,27.77,27.77,0,0,0,3.24-7.72,21,21,0,0,0,.61-3c.07-.44.15-.85.19-1.22l.06-1c0-.59.08-1,.1-1.38a4.37,4.37,0,0,1,.05-.47s0,.16,0,.47,0,.8,0,1.39c0,.31,0,.65,0,1s-.11.79-.17,1.23a20.62,20.62,0,0,1-.56,3,27.58,27.58,0,0,1-3.19,7.82A29.32,29.32,0,0,1,268,417.08a26.48,26.48,0,0,1-3.71.44c-.63,0-1.27.09-1.92.08l-1.94-.09a12.91,12.91,0,0,1-2-.21c-.66-.11-1.32-.18-2-.32a31.17,31.17,0,0,1-3.92-1.14,30.84,30.84,0,0,1-3.84-1.68c-.62-.33-1.22-.72-1.83-1.09a15.16,15.16,0,0,1-1.78-1.22,34,34,0,0,1-3.34-2.83,32.51,32.51,0,0,1-2.88-3.4,28.62,28.62,0,0,1-4.21-8.1,29.09,29.09,0,0,1,0-18.56,28.62,28.62,0,0,1,4.21-8.1,33.79,33.79,0,0,1,2.89-3.41,34.14,34.14,0,0,1,3.33-2.83,16.49,16.49,0,0,1,1.78-1.22c.62-.36,1.21-.75,1.83-1.09a30.77,30.77,0,0,1,3.84-1.67,29.58,29.58,0,0,1,3.92-1.14c.66-.14,1.32-.22,2-.32a12.91,12.91,0,0,1,2-.21l1.94-.1c.65,0,1.28.06,1.92.08a28.06,28.06,0,0,1,3.71.44,29.28,29.28,0,0,1,19.73,13.89,27.58,27.58,0,0,1,3.19,7.82,20.38,20.38,0,0,1,.56,3c.06.44.14.85.17,1.22s0,.72,0,1c0,.59,0,1.05,0,1.39S291.68,388.24,291.68,388.24Z" style="fill:#263238"></path><rect x="250.92" y="373.06" width="22.89" height="30.35" style="fill:#263238"></rect><path d="M263.47,377.91a27.25,27.25,0,0,1-7.51,0,27.25,27.25,0,0,1,7.51,0Z" style="fill:#455a64"></path><path d="M270.1,382.18a55.33,55.33,0,0,1-7.52.26,55.12,55.12,0,0,1-7.51-.26,55.12,55.12,0,0,1,7.51-.26A55.33,55.33,0,0,1,270.1,382.18Z" style="fill:#455a64"></path><path d="M270.1,384.78a55.33,55.33,0,0,1-7.52.26,55.12,55.12,0,0,1-7.51-.26,52.28,52.28,0,0,1,7.51-.27A52.48,52.48,0,0,1,270.1,384.78Z" style="fill:#455a64"></path><path d="M270.1,387.37a55.33,55.33,0,0,1-7.52.26,55.12,55.12,0,0,1-7.51-.26,55.12,55.12,0,0,1,7.51-.26A55.33,55.33,0,0,1,270.1,387.37Z" style="fill:#455a64"></path><path d="M270.1,390a55.33,55.33,0,0,1-7.52.26,55.12,55.12,0,0,1-7.51-.26,52.28,52.28,0,0,1,7.51-.27A52.48,52.48,0,0,1,270.1,390Z" style="fill:#455a64"></path><path d="M270.1,392.56a55.33,55.33,0,0,1-7.52.26,55.12,55.12,0,0,1-7.51-.26,55.12,55.12,0,0,1,7.51-.26A55.33,55.33,0,0,1,270.1,392.56Z" style="fill:#455a64"></path><path d="M270.1,395.15a52.48,52.48,0,0,1-7.52.27,52.28,52.28,0,0,1-7.51-.27,55.12,55.12,0,0,1,7.51-.26A55.33,55.33,0,0,1,270.1,395.15Z" style="fill:#455a64"></path><path d="M270.1,397.75a55.33,55.33,0,0,1-7.52.26,55.12,55.12,0,0,1-7.51-.26,55.12,55.12,0,0,1,7.51-.26A55.33,55.33,0,0,1,270.1,397.75Z" style="fill:#455a64"></path><rect x="232.32" y="237.9" width="305.65" height="50.19" rx="23.79" style="fill:#fff"></rect><path d="M470.25,237.45v50.64H513a25.33,25.33,0,0,0,25.33-25.32h0A25.32,25.32,0,0,0,513,237.45Z" style="fill:#407BFF"></path><path d="M510,261.36a23.22,23.22,0,0,0-.43-2.58,10.68,10.68,0,0,0-3.9-5.77,10.46,10.46,0,0,0-9.92-1.46A9.8,9.8,0,0,0,493.1,253a10.34,10.34,0,0,0-2.21,2.22,10.43,10.43,0,0,0,0,12.34,9.7,9.7,0,0,0,2.21,2.22,9.83,9.83,0,0,0,2.64,1.43A10.58,10.58,0,0,0,509.56,264a23.13,23.13,0,0,0,.43-2.59,8.37,8.37,0,0,1-.24,2.64,10.65,10.65,0,0,1-3.87,6,10.8,10.8,0,0,1-10.3,1.62,10.08,10.08,0,0,1-2.78-1.48,10.42,10.42,0,0,1-2.32-2.32,10.89,10.89,0,0,1,0-12.94,10.9,10.9,0,0,1,5.1-3.8,10.92,10.92,0,0,1,5.73-.44,10.77,10.77,0,0,1,8.44,8.08A8.31,8.31,0,0,1,510,261.36Z" style="fill:#fff"></path><path d="M519.92,276.32a55.27,55.27,0,0,1-6.16-4.09,52.84,52.84,0,0,1-5.86-4.52,53.61,53.61,0,0,1,6.16,4.09A52.84,52.84,0,0,1,519.92,276.32Z" style="fill:#fff"></path><rect x="261.38" y="258.29" width="186.85" height="10.74" style="fill:#ebebeb"></rect><path d="M514.18,288.09s.59,0,1.73-.11a15.79,15.79,0,0,0,2.11-.27,21.74,21.74,0,0,0,2.87-.65,24.08,24.08,0,0,0,7.32-3.68l1-.74c.32-.28.63-.58.95-.87a20.55,20.55,0,0,0,1.9-1.94c.65-.68,1.16-1.51,1.78-2.3l.78-1.29.4-.67.34-.71a23,23,0,0,0,2.1-6.32c.08-.58.17-1.17.26-1.76s.07-1.21.1-1.82c0-1.22,0-2.5,0-3.78a23.65,23.65,0,0,0-22.91-23.08c-6.82-.06-14.06,0-21.64,0l-237.15.08a23.69,23.69,0,0,0-15.6,5.94,23.34,23.34,0,0,0-7.73,14.56,17.86,17.86,0,0,0-.17,2.08c0,.69-.05,1.39,0,2.09a41,41,0,0,0,.16,4.17,22.78,22.78,0,0,0,2.37,7.88,23.7,23.7,0,0,0,11.63,11,24,24,0,0,0,7.8,1.87c1.33.09,2.68.08,4,.08h50.76l106.62.06,71.87.08,19.55.05,5.08,0,1.73,0-1.73,0-5.08,0-19.55.05-71.87.08-106.62.06H258.57c-1.35,0-2.69,0-4.06-.08a23.88,23.88,0,0,1-19.86-13.15,23.26,23.26,0,0,1-2.42-8.05,39.89,39.89,0,0,1-.17-4.23c0-.7,0-1.4.05-2.11a16.83,16.83,0,0,1,.17-2.13,23.83,23.83,0,0,1,7.89-14.88,24.24,24.24,0,0,1,16-6.07l237.15.08c7.59,0,14.81,0,21.65.05a23.92,23.92,0,0,1,23.15,23.4c0,1.3,0,2.56,0,3.8,0,.62-.07,1.23-.11,1.83s-.18,1.2-.27,1.78a23,23,0,0,1-2.14,6.37l-.34.72-.41.66c-.27.45-.53.88-.8,1.31a28.65,28.65,0,0,1-1.8,2.3,18.6,18.6,0,0,1-1.91,1.95c-.33.3-.65.6-1,.87l-1,.75a24,24,0,0,1-7.38,3.65,21.6,21.6,0,0,1-2.89.63,15.06,15.06,0,0,1-2.12.24C514.77,288.08,514.18,288.09,514.18,288.09Z" style="fill:#263238"></path></g><g id="freepik--Character--inject-11"><path d="M381.75,256.89c-.91-1.06-1-2,1.05-2.14,4.51-.41,7.83-2.38,8.36-3.52s-.91-2.25-2.13-1.57a17.06,17.06,0,0,1-4.39,1.24,11,11,0,0,1-3.67,0c-1.05-.16-2-.34-2.8-.51,0,0-4.77-1-6.83-2.64l-10.1,10.79,4.74,5.35a7.17,7.17,0,0,0,6.32,3c4.06-.4,9.53-3.31,9.53-3.31.74-1.14,7.28,2.9,9.39,4.41s3.66,1.13,3.58-.32c-.05-1-6.39-5.78-8.51-7.23a26.46,26.46,0,0,1-4.54-3.58" style="fill:#ffbe9d"></path><path d="M375.82,266.26c0,.07-.29.19-.82.18a3.48,3.48,0,0,1-3.06-2.32c-.16-.49-.11-.82-.05-.83a6.73,6.73,0,0,0,1.55,2A6.65,6.65,0,0,0,375.82,266.26Z" style="fill:#eb996e"></path><path d="M379.82,264.69c0,.06-.29.17-.79.14a3.45,3.45,0,0,1-2.91-2.27c-.15-.47-.12-.78-.06-.79s.42,1.11,1.51,1.94A7.9,7.9,0,0,0,379.82,264.69Z" style="fill:#eb996e"></path><path d="M390.71,152.43c.42,8.86,11.23,21,19.27,23,4.22,1,9.08.55,12.43,3.39,5.75,4.87,2.39,15,6.26,21.5,2.38,4,7.11,6,9.79,9.79,4.45,6.34,1.46,15.92-4.61,20.64s-14.17,5.62-21.78,5.42c-16.75-.43-33.9-5.75-46-17.62-5.69-5.58-27.94-22.79-20.18-63.6" style="fill:#263238"></path><path d="M451.15,215.83l-63.67-18.9a40.52,40.52,0,0,0-9.27-2.79l-21.5.14a20.87,20.87,0,0,0-8.25,1.73l-57.95,19.25c-4.29,1.36-7.25,5.76-7.25,10.77h0c0,6.17,4.45,11.18,9.94,11.18H320l-.11.39,93.08.35v0l35.53.07c5.49,0,9.94-5.05,9.94-11.29C458.4,221.65,455.44,217.2,451.15,215.83Z" style="fill:#407BFF"></path><path d="M438.39,222.72a2.82,2.82,0,0,1-.58,0l-1.64-.19c-1.42-.18-3.48-.41-6-.65a184.8,184.8,0,0,0-20-.84,187.2,187.2,0,0,0-19.94,1.36c-2.54.31-4.6.59-6,.81l-1.64.23a3,3,0,0,1-.57.05,1.94,1.94,0,0,1,.55-.15l1.62-.33c1.41-.28,3.46-.62,6-1a162.61,162.61,0,0,1,20-1.51,160.76,160.76,0,0,1,20,1c2.55.29,4.61.58,6,.82l1.63.28A2.08,2.08,0,0,1,438.39,222.72Z" style="fill:#263238"></path><g style="opacity:0.6000000000000001"><path d="M423.45,207.25a.87.87,0,0,1-.18.21l-.56.59c-.5.51-1.24,1.27-2.25,2.19a36.86,36.86,0,0,1-3.87,3.11,19,19,0,0,1-5.95,2.84,15.28,15.28,0,0,1-7.95-.16,39.75,39.75,0,0,1-8.38-3.7,50,50,0,0,0-9.07-4.25,13.94,13.94,0,0,0-10.37.53c-3.35,1.51-6.2,3.81-9.31,5.47-.77.43-1.59.76-2.38,1.12a25.07,25.07,0,0,1-2.45.81,23.42,23.42,0,0,1-4.9.85,25.27,25.27,0,0,1-16.29-4.48,44.5,44.5,0,0,1-4.92-4.37,23.85,23.85,0,0,0-3.81-3.11,10.27,10.27,0,0,0-3.9-1.46,5.91,5.91,0,0,1,1.09.12,9.42,9.42,0,0,1,2.92,1.16,23.82,23.82,0,0,1,3.9,3.08,45.14,45.14,0,0,0,4.93,4.28,25,25,0,0,0,16.05,4.3,23.25,23.25,0,0,0,4.8-.84,24,24,0,0,0,2.39-.81c.77-.35,1.57-.67,2.32-1.1,3.07-1.63,5.91-3.94,9.35-5.5a14.49,14.49,0,0,1,10.73-.54,50.16,50.16,0,0,1,9.15,4.32,39.76,39.76,0,0,0,8.26,3.7,14.88,14.88,0,0,0,7.75.22,19.06,19.06,0,0,0,5.88-2.72,37.27,37.27,0,0,0,3.89-3c1-.89,1.79-1.62,2.32-2.1l.59-.56C423.37,207.3,423.44,207.24,423.45,207.25Z" style="fill:#fff"></path></g><g style="opacity:0.2"><polygon points="324.51 222.59 364.76 230.18 360.11 237.75 358.88 237.77 324.51 222.59"></polygon></g><g style="opacity:0.6000000000000001"><path d="M446.34,214.64a2.86,2.86,0,0,1,0,.61,13.82,13.82,0,0,1-.18,1.76,15.41,15.41,0,0,1-15.69,12.74,25.72,25.72,0,0,1-6-1.1c-2-.57-3.95-1.2-5.86-1.58a16.72,16.72,0,0,0-5.56-.29A18,18,0,0,0,400,235l-.52.87q-.19.38-.33.66a2.69,2.69,0,0,1-.31.54,4,4,0,0,1,.21-.58c.09-.2.18-.43.29-.69l.49-.9a16.6,16.6,0,0,1,4.26-4.9A17.9,17.9,0,0,1,413,226.3a17.36,17.36,0,0,1,5.72.27c1.95.38,3.9,1,5.91,1.58a25.54,25.54,0,0,0,5.91,1.09,15.26,15.26,0,0,0,12.94-6.41A15.86,15.86,0,0,0,446,217C446.29,215.49,446.28,214.63,446.34,214.64Z" style="fill:#fff"></path></g><path d="M290.56,235.92S363.32,268,363,267.29s11.55-21.78,11.55-21.78l-58.95-29.14Z" style="fill:#407BFF"></path><path d="M324,220.53a10.67,10.67,0,0,1,1.5.63l4,1.89c3.38,1.61,8,3.87,13.13,6.4s9.73,4.84,13.06,6.54l3.93,2a9.78,9.78,0,0,1,1.41.81,9,9,0,0,1-1.5-.62l-4-1.89c-3.37-1.61-8-3.87-13.13-6.4s-9.73-4.84-13.06-6.54l-3.93-2A10.59,10.59,0,0,1,324,220.53Z" style="fill:#263238"></path><g style="opacity:0.6000000000000001"><path d="M339.94,230.27a6.27,6.27,0,0,1-.68,2.16,10.18,10.18,0,0,1-4.34,4.34,13.47,13.47,0,0,1-4,1.44,16.16,16.16,0,0,1-4.92,0,36.88,36.88,0,0,1-10.61-3.56A56.05,56.05,0,0,0,305,230.63a18.29,18.29,0,0,0-4.76-.55,14.84,14.84,0,0,0-4.12.7,11.18,11.18,0,0,0-5.08,3.18,21,21,0,0,0-1.31,1.8,6.64,6.64,0,0,1,1.16-1.93,11,11,0,0,1,5.12-3.4,14.94,14.94,0,0,1,4.21-.78,18.28,18.28,0,0,1,4.89.52,53.68,53.68,0,0,1,10.43,4.06A37.68,37.68,0,0,0,326,237.79a15.61,15.61,0,0,0,4.78,0,13.34,13.34,0,0,0,3.94-1.34,10.26,10.26,0,0,0,4.33-4.1A16.67,16.67,0,0,0,339.94,230.27Z" style="fill:#fff"></path></g><g style="opacity:0.6000000000000001"><path d="M370.83,252.28c0,.09-1.61-.17-4.21-.22a36.55,36.55,0,0,0-4.55.24,37.92,37.92,0,0,0-5.47,1.08,38.51,38.51,0,0,0-5.22,1.94,37.16,37.16,0,0,0-4,2.19c-2.19,1.4-3.41,2.47-3.47,2.39a4.51,4.51,0,0,1,.81-.8,24.08,24.08,0,0,1,2.46-1.89,30.43,30.43,0,0,1,4-2.32A32.47,32.47,0,0,1,362,251.82a31,31,0,0,1,4.62-.12,22.5,22.5,0,0,1,3.09.32A4.25,4.25,0,0,1,370.83,252.28Z" style="fill:#fff"></path></g><g style="opacity:0.2"><path d="M379.8,194c-1.2,3.36.6,7,2.36,10.1a27.39,27.39,0,0,0,4.22,6.13,9.22,9.22,0,0,0,6.61,3c3.27-.11,6.19-2.52,9.46-2.33,2.22.13,4.16,1.44,6,2.68a47.57,47.57,0,0,0,10.08,5.59,18.17,18.17,0,0,0,11.34.71,11.31,11.31,0,0,0,7.85-7.77"></path></g><path d="M380.07,193.08c.17-3.92.38-7.46.38-7.46s8.76-1.11,9.13-10-.51-29.51-.51-29.51L373,138.33l-17.33,14,2.71,41a10.89,10.89,0,0,0,11.37,10.15h0A10.87,10.87,0,0,0,380.07,193.08Z" style="fill:#ffbe9d"></path><path d="M387.56,162.22a1.11,1.11,0,1,1-1.13-1.12A1.13,1.13,0,0,1,387.56,162.22Z" style="fill:#263238"></path><path d="M388.64,159.84c-.14.15-1-.56-2.17-.6s-2.09.56-2.22.4.08-.35.47-.63a2.84,2.84,0,0,1,1.78-.52,3,3,0,0,1,1.73.67C388.59,159.48,388.71,159.77,388.64,159.84Z" style="fill:#263238"></path><path d="M374.28,162.22a1.12,1.12,0,1,1-1.14-1.12A1.13,1.13,0,0,1,374.28,162.22Z" style="fill:#263238"></path><path d="M375.36,160.07c-.14.15-1-.56-2.18-.6s-2.09.56-2.21.4.08-.35.47-.63a2.83,2.83,0,0,1,1.77-.52,2.87,2.87,0,0,1,1.73.68C375.31,159.71,375.43,160,375.36,160.07Z" style="fill:#263238"></path><path d="M379.86,170.38a7.81,7.81,0,0,1,2-.3c.3,0,.6-.07.65-.29a1.76,1.76,0,0,0-.19-1c-.27-.81-.56-1.65-.87-2.54a47,47,0,0,1-1.93-6.62,45.38,45.38,0,0,1,2.42,6.45c.29.89.57,1.74.83,2.55a2,2,0,0,1,.14,1.29.77.77,0,0,1-.51.46,2.07,2.07,0,0,1-.52.06A7.51,7.51,0,0,1,379.86,170.38Z" style="fill:#263238"></path><path d="M375.92,171.61c-1.22-.8,3.39,2,5.83,1.95a3.28,3.28,0,0,1-3.95,1.23C375.22,173.72,375.92,171.61,375.92,171.61Z" style="fill:#fff"></path><path d="M380.45,185.62a21.38,21.38,0,0,1-11.59-3.8s2.73,6.51,11.44,6Z" style="fill:#eb996e"></path><path d="M346.22,161.1h0c0,7.73-2.05,28.18,12,31L357.75,164s13.65-6.44,16-19.85l.08.08c.87,2,2.43,6.37,1.48,9.91l12.79,3.15,1.47,1.34s4.55-10-4.23-19-16.29-2.49-21-3c-3.13-.38-14-.31-18.41,18.39Z" style="fill:#263238"></path><path d="M358.1,164.27c-1.19-.74-2.82-.13-3.76.9a5.13,5.13,0,0,0,5.11,8.43" style="fill:#ffbe9d"></path><path d="M357.83,170.93c0,.06-.4.13-1,0a2.71,2.71,0,0,1-1.87-1.66,2,2,0,0,1,.06-1.46,2.13,2.13,0,0,1,.76-.89c.56-.36,1-.33,1-.27s-.35.19-.77.57a1.73,1.73,0,0,0-.54,1.88,2.64,2.64,0,0,0,1.5,1.48C357.46,170.78,357.83,170.85,357.83,170.93Z" style="fill:#eb996e"></path><path d="M356.66,172.69a1,1,0,1,0,.39,0" style="fill:#407BFF"></path><path d="M382.56,238V223.31s-21.81,4.52-22.21,14.51Z" style="fill:#ffbe9d"></path><path d="M380.29,191.53a18.3,18.3,0,0,0,17.9,16.82c3.22.05,6.61-.71,9.55.6,2.56,1.15,4.21,3.62,6.22,5.57a18.43,18.43,0,0,0,18.28,4.14c2.65-.89,6.84-2.79,7.33-5.53.38-2.09-2.18-4.17-3.68-5.66a18.56,18.56,0,0,0-5.37-3.36c-15.54-7.3-32.21-12.6-49.35-13.51" style="fill:#263238"></path></g></svg>